<svg height="512pt" viewBox="-53 0 512 512" width="512pt" xmlns="http://www.w3.org/2000/svg"><path d="m212.800781 125.816406c-3.695312-2.925781-8.53125-3.996094-13.113281-2.910156-1.757812.414062-43.566406 10.546875-85.640625 41.394531-56.511719 41.421875-86.382813 100.386719-86.382813 170.507813 0 8.515625 6.902344 15.417968 15.414063 15.417968h160.160156c8.515625 0 15.417969-6.902343 15.417969-15.417968v-196.902344c0-4.714844-2.15625-9.167969-5.855469-12.089844zm0 0" fill="#ffce00"/><path d="m375.355469 288.105469-160.15625-196.90625c-4.117188-5.0625-10.976563-6.988281-17.121094-4.796875-6.148437 2.183594-10.253906 8-10.253906 14.523437v196.90625c0 8.511719 6.902343 15.414063 15.414062 15.414063h160.160157c5.945312 0 11.363281-3.421875 13.917968-8.792969 2.558594-5.371094 1.792969-11.734375-1.960937-16.347656zm0 0" fill="#ffa100"/><path d="m187.824219 15.414062c0-8.511718 6.902343-15.414062 15.414062-15.414062h69.335938c8.511719 0 15.414062 6.902344 15.414062 15.414062v35.894532c0 8.511718-6.902343 15.414062-15.414062 15.414062h-84.75zm0 0" fill="#ff2323"/><path d="m203.238281 398.292969c-8.511719 0-15.414062-6.902344-15.414062-15.414063v-367.464844c0-8.511718 6.902343-15.414062 15.414062-15.414062 8.515625 0 15.417969 6.902344 15.417969 15.414062v367.464844c0 8.511719-6.902344 15.414063-15.417969 15.414063zm0 0" fill="#a66856"/><path d="m203.242188 0v398.292969c8.511718 0 15.414062-6.902344 15.414062-15.414063v-367.464844c0-8.511718-6.902344-15.414062-15.414062-15.414062zm0 0" fill="#8f5040"/><path d="m401.480469 387.570312c-5.832031-9.117187-15.777344-14.558593-26.601563-14.558593h-343.28125c-10.820312 0-20.765625 5.441406-26.601562 14.558593-5.832032 9.117188-6.605469 20.425782-2.070313 30.253907l10.371094 22.472656c20.105469 43.558594 64.09375 71.703125 112.066406 71.703125h155.753907c47.972656 0 91.960937-28.144531 112.066406-71.703125l10.371094-22.472656c4.535156-9.828125 3.761718-21.136719-2.074219-30.253907zm0 0" fill="#007aa0"/><path d="m401.480469 387.570312c-5.832031-9.117187-15.777344-14.558593-26.601563-14.558593h-171.636718v138.988281h77.875c47.972656 0 91.960937-28.144531 112.066406-71.703125l10.371094-22.472656c4.535156-9.828125 3.761718-21.136719-2.074219-30.253907zm0 0" fill="#005f7e"/><path d="m403.554688 417.824219c4.535156-9.828125 3.761718-21.136719-2.074219-30.253907-5.832031-9.117187-15.777344-14.558593-26.597657-14.558593h-343.285156c-10.820312 0-20.765625 5.441406-26.601562 14.558593-5.832032 9.117188-6.605469 20.425782-2.070313 30.253907l.277344.597656h400.074219zm0 0" fill="#f2f8f9"/><path d="m401.480469 387.570312c-5.832031-9.117187-15.777344-14.558593-26.597657-14.558593h-171.640624v45.410156h200.035156l.277344-.597656c4.535156-9.828125 3.761718-21.136719-2.074219-30.253907zm0 0" fill="#e1ecef"/></svg>