<svg height="512pt" viewBox="1 0 511 512" width="512pt" xmlns="http://www.w3.org/2000/svg"><g fill="#9d5c4b"><path d="m115.058594 136.910156 22.347656-22.347656 108.660156 108.660156-22.347656 22.347656zm0 0"/><path d="m72.277344 240.199219h153.671875v31.601562h-153.671875zm0 0"/><path d="m115.058594 375.089844 108.660156-108.660156 22.347656 22.34375-108.660156 108.664062zm0 0"/><path d="m240.699219 286.550781h31.601562v153.671875h-31.601562zm0 0"/></g><path d="m256.5 286.550781h15.800781v153.671875h-15.800781zm0 0" fill="#8f5040"/><path d="m266.925781 288.777344 22.34375-22.347656 108.664063 108.660156-22.347656 22.347656zm0 0" fill="#8f5040"/><path d="m287.050781 240.199219h153.671875v31.601562h-153.671875zm0 0" fill="#8f5040"/><path d="m266.925781 223.222656 108.660157-108.660156 22.347656 22.347656-108.660156 108.660156zm0 0" fill="#8f5040"/><path d="m240.699219 71.777344h31.601562v153.671875h-31.601562zm0 0" fill="#9d5c4b"/><path d="m256.5 71.777344h15.800781v153.671875h-15.800781zm0 0" fill="#8f5040"/><path d="m73.929688 118.019531c-11.4375-11.4375-10.742188-30.746093 1.550781-43.039062s31.601562-12.988281 43.039062-1.550781l31.089844 31.09375-44.585937 44.585937zm0 0" fill="#ffdf45"/><path d="m73.804688 224.472656h-43.964844c-16.179688 0-29.339844 14.140625-29.339844 31.527344s13.160156 31.527344 29.335938 31.527344h43.96875zm0 0" fill="#ffdf45"/><path d="m73.929688 393.980469c-11.4375 11.4375-10.742188 30.746093 1.550781 43.039062 6.4375 6.433594 14.796875 9.691407 22.945312 9.691407 7.410157 0 14.644531-2.695313 20.09375-8.144532l31.089844-31.089844-44.585937-44.585937zm0 0" fill="#ffdf45"/><path d="m224.972656 482.660156c0 16.179688 14.144532 29.339844 31.527344 29.339844s31.527344-13.160156 31.527344-29.339844v-43.964844h-63.054688zm0 0" fill="#ffdf45"/><path d="m256.5 512c17.382812 0 31.527344-13.160156 31.527344-29.339844v-43.964844h-31.527344zm0 0" fill="#ffa100"/><path d="m407.976562 362.890625-44.585937 44.585937 31.089844 31.09375c5.449219 5.449219 12.683593 8.140626 20.09375 8.140626 8.148437 0 16.507812-3.257813 22.945312-9.691407 12.289063-12.292969 12.988281-31.601562 1.546875-43.039062zm0 0" fill="#ffa100"/><path d="m483.160156 224.472656h-43.96875v63.054688h43.96875c16.179688 0 29.339844-14.144532 29.339844-31.527344 0-17.386719-13.160156-31.527344-29.339844-31.527344zm0 0" fill="#ffa100"/><path d="m439.070312 118.019531c11.4375-11.4375 10.742188-30.746093-1.550781-43.039062s-31.601562-12.988281-43.039062-1.550781l-31.089844 31.09375 44.585937 44.585937zm0 0" fill="#ffa100"/><path d="m288.027344 73.304688h-63.054688v-43.964844c0-16.179688 14.140625-29.339844 31.527344-29.339844s31.527344 13.160156 31.527344 29.339844zm0 0" fill="#ffdf45"/><path d="m288.027344 29.339844c0-16.179688-14.144532-29.339844-31.527344-29.339844v73.304688h31.527344zm0 0" fill="#ffa100"/><path d="m256.5 56.472656c-110.019531 0-199.527344 89.507813-199.527344 199.527344 0 110.015625 89.507813 199.523438 199.527344 199.523438s199.527344-89.507813 199.527344-199.523438c0-110.019531-89.507813-199.527344-199.527344-199.527344zm0 356.578125c-86.597656 0-157.050781-70.453125-157.050781-157.050781s70.453125-157.050781 157.050781-157.050781 157.050781 70.453125 157.050781 157.050781-70.453125 157.050781-157.050781 157.050781zm0 0" fill="#b27861"/><path d="m256.5 56.472656v42.476563c86.597656 0 157.050781 70.453125 157.050781 157.050781s-70.453125 157.046875-157.050781 157.046875v42.476563c110.019531 0 199.527344-89.507813 199.527344-199.523438 0-110.019531-89.507813-199.527344-199.527344-199.527344zm0 0" fill="#ae774e"/><path d="m256.5 300.050781c-24.289062 0-44.050781-19.761719-44.050781-44.050781s19.761719-44.050781 44.050781-44.050781 44.050781 19.761719 44.050781 44.050781-19.761719 44.050781-44.050781 44.050781zm0-56.5c-6.863281 0-12.445312 5.585938-12.445312 12.449219 0 6.859375 5.582031 12.445312 12.445312 12.445312s12.445312-5.585937 12.445312-12.445312c0-6.863281-5.582031-12.449219-12.445312-12.449219zm0 0" fill="#ffdf45"/><path d="m300.550781 256c0-24.289062-19.761719-44.050781-44.050781-44.050781v31.605469c6.863281 0 12.445312 5.582031 12.445312 12.445312s-5.582031 12.445312-12.445312 12.445312v31.605469c24.289062 0 44.050781-19.761719 44.050781-44.050781zm0 0" fill="#ffa100"/></svg>